<svg aria-hidden="true" style="width:0;height:0;position:absolute;overflow:hidden" xmlns="http://www.w3.org/2000/svg"><defs><symbol id="icon-aroow-top-scroll" viewBox="0 0 32 32"><path d="M4.5 19.6 15.7 8.367c.133-.133.278-.228.433-.283s.322-.084.5-.084.345.028.5.084.3.149.433.283L28.799 19.6c.311.311.467.7.467 1.167s-.167.867-.5 1.2c-.333.333-.722.5-1.167.5s-.833-.167-1.167-.5l-9.8-9.8-9.8 9.8c-.311.311-.694.467-1.149.467s-.851-.167-1.184-.5-.5-.722-.5-1.167c0-.444.167-.833.5-1.167z"/></symbol><symbol id="icon-arrow-right" viewBox="0 0 32 32"><path stroke-linejoin="round" stroke-linecap="round" stroke-width="3.2" d="M5.333 16h21.333m.001 0-8-8m8 8-8 8"/></symbol><symbol id="icon-basket" viewBox="0 0 32 32"><path stroke-linejoin="round" stroke-linecap="round" stroke-width="2.286" d="M22.667 14.667v-4a6.667 6.667 0 0 0-13.334 0v4M10.4 28h11.2c2.24 0 3.36 0 4.216-.436a3.991 3.991 0 0 0 1.748-1.748C28 24.96 28 23.84 28 21.6v-.533c0-2.24 0-3.36-.436-4.216a3.991 3.991 0 0 0-1.748-1.748c-.856-.436-1.976-.436-4.216-.436H10.4c-2.24 0-3.36 0-4.216.436a3.996 3.996 0 0 0-1.748 1.748C4 17.707 4 18.827 4 21.067v.533c0 2.24 0 3.36.436 4.216a3.991 3.991 0 0 0 1.748 1.748C7.04 28 8.16 28 10.4 28z"/></symbol><symbol id="icon-btn-burger" viewBox="0 0 32 32"><path stroke-linejoin="round" stroke-linecap="round" stroke-width="2.286" d="M22.667 13.333H4M28 8H4M28 18.667H4M22.667 24H4"/></symbol><symbol id="icon-corner-down" viewBox="0 0 32 32"><path d="M7.744 12h16.513l-7.423 8.391c-.221.25-.521.39-.834.39s-.613-.14-.834-.39L7.743 12z"/></symbol><symbol id="icon-delete-basket" viewBox="0 0 32 32"><path d="M32 16c0 8.837-7.163 16-16 16S0 24.837 0 16 7.163 0 16 0s16 7.163 16 16z"/><path stroke-linejoin="round" stroke-linecap="round" stroke-width="1.684" d="M13.684 9.053h4.632m-9.263 2.315h13.895m-1.544 0-.541 8.12c-.081 1.218-.122 1.827-.385 2.289a2.322 2.322 0 0 1-1.002.938c-.478.232-1.089.232-2.31.232h-2.33c-1.221 0-1.832 0-2.31-.232a2.31 2.31 0 0 1-1.002-.938c-.263-.462-.304-1.071-.385-2.289l-.541-8.12m3.858 3.474v3.86m3.088-3.86v3.86"/></symbol><symbol id="icon-logo" viewBox="0 0 32 32"><path d="m0 0 16.343 16.171L32 32V0H0z"/><path d="M4.457 4.229 16.4 16.058l11.257 11.486h-23.2V4.23z"/><path d="M27.733 27.618 15.79 15.789 4.533 4.303h23.2v23.314z"/><path d="m9.257 9.029 13.6 13.6h-13.6v-13.6z"/><path d="m9.257 9.029 13.6 13.6v-13.6h-13.6z"/></symbol><symbol id="icon-mail" viewBox="0 0 32 32"><path stroke-linejoin="round" stroke-linecap="round" stroke-width="2.286" d="m28.666 24-8.857-8m-7.619 0-8.857 8M2.667 9.333l10.887 7.621c.882.617 1.322.926 1.802 1.045.423.106.866.106 1.29 0 .479-.12.92-.428 1.802-1.045l10.887-7.621M9.067 26.667h13.867c2.24 0 3.36 0 4.216-.436a3.996 3.996 0 0 0 1.748-1.748c.436-.856.436-1.976.436-4.216v-8.533c0-2.24 0-3.36-.436-4.216A3.991 3.991 0 0 0 27.15 5.77c-.856-.436-1.976-.436-4.216-.436H9.067c-2.24 0-3.36 0-4.216.436a3.991 3.991 0 0 0-1.748 1.748c-.436.856-.436 1.976-.436 4.216v8.533c0 2.24 0 3.36.436 4.216a3.996 3.996 0 0 0 1.748 1.748c.856.436 1.976.436 4.216.436z"/></symbol><symbol id="icon-plug-book" viewBox="0 0 32 32"><path d="M31.229 8.466a15.221 15.221 0 0 0-2.138-.91v17.947A14.622 14.622 0 0 0 24 24.578c-2.764 0-5.498.806-8 2.357V8.884c-2.356-1.387-5.076-2.208-8-2.208-2.604 0-5.062.656-7.229 1.79C.291 8.705 0 9.227 0 9.779V27.8c0 .865.684 1.477 1.455 1.477.233 0 .465-.06.698-.179 1.76-.94 3.738-1.537 5.847-1.537 3.011 0 5.789 1.223 8 2.984 2.211-1.76 4.989-2.984 8-2.984 2.109 0 4.087.597 5.847 1.552.233.119.465.179.698.179.756 0 1.455-.612 1.455-1.477V9.779c0-.552-.291-1.074-.771-1.313zM13.091 25.503c-1.658-.612-3.36-.925-5.091-.925s-3.433.313-5.091.925V10.719a12.672 12.672 0 0 1 10.182.015v14.769zM26.182 1.455l-7.273 7.459v14.173l7.273-6.713V1.456z"/></symbol><symbol id="icon-scroll-up" viewBox="0 0 32 32"><path d="M16 0c8.837 0 16 7.163 16 16s-7.163 16-16 16S0 24.837 0 16 7.163 0 16 0z"/><path d="M16 2.5c7.456 0 13.5 6.044 13.5 13.5S23.456 29.5 16 29.5 2.5 23.456 2.5 16 8.544 2.5 16 2.5z"/><path d="m17.35 20.313-4.213-4.2c-.05-.05-.085-.104-.106-.162S13 15.83 13 15.763s.011-.129.031-.188a.444.444 0 0 1 .106-.163l4.213-4.213c.117-.117.262-.175.438-.175s.325.063.45.188a.6.6 0 0 1 0 .876l-3.675 3.675 3.675 3.675c.117.117.175.26.175.431s-.063.319-.188.444a.6.6 0 0 1-.876 0z"/></symbol><symbol id="icon-user-icon" viewBox="0 0 32 32"><path d="M5.333 29.333a10.662 10.662 0 0 1 18.208-7.543c2 2 3.124 4.714 3.124 7.543H5.332zm10.667-12c-4.42 0-8-3.58-8-8s3.58-8 8-8 8 3.58 8 8-3.58 8-8 8z"/></symbol><symbol id="icon-x-closer" viewBox="0 0 28 28" fill="none"><path d="M21 7 7 21M7 7l14 14" stroke="#111" stroke-width="3" stroke-linecap="round" stroke-linejoin="round"/></symbol></defs></svg>