<svg aria-hidden="true" style="position: absolute; width: 0; height: 0; overflow: hidden;" version="1.1" xmlns="http://www.w3.org/2000/svg" xmlns:xlink="http://www.w3.org/1999/xlink">
<defs>
<symbol id="icon-aroow-top-scroll" viewBox="0 0 32 32">
<path d="M4.5 19.6l11.2-11.233c0.133-0.133 0.278-0.228 0.433-0.283s0.322-0.084 0.5-0.084c0.178 0 0.345 0.028 0.5 0.084s0.3 0.149 0.433 0.283l11.233 11.233c0.311 0.311 0.467 0.7 0.467 1.167s-0.167 0.867-0.5 1.2c-0.333 0.333-0.722 0.5-1.167 0.5s-0.833-0.167-1.167-0.5l-9.8-9.8-9.8 9.8c-0.311 0.311-0.694 0.467-1.149 0.467s-0.851-0.167-1.184-0.5-0.5-0.722-0.5-1.167c0-0.444 0.167-0.833 0.5-1.167z"></path>
</symbol>
<symbol id="icon-arrow-right" viewBox="0 0 32 32">
<path stroke-linejoin="round" stroke-linecap="round" stroke-miterlimit="4" stroke-width="3.2" d="M5.333 16h21.333M26.667 16l-8-8M26.667 16l-8 8"></path>
</symbol>
<symbol id="icon-basket" viewBox="0 0 32 32">
<path stroke-linejoin="round" stroke-linecap="round" stroke-miterlimit="4" stroke-width="2.2857" d="M22.667 14.667v-4c0-3.682-2.985-6.667-6.667-6.667s-6.667 2.985-6.667 6.667v4M10.4 28h11.2c2.24 0 3.36 0 4.216-0.436 0.753-0.383 1.365-0.995 1.748-1.748 0.436-0.856 0.436-1.976 0.436-4.216v-0.533c0-2.24 0-3.36-0.436-4.216-0.383-0.753-0.995-1.365-1.748-1.748-0.856-0.436-1.976-0.436-4.216-0.436h-11.2c-2.24 0-3.36 0-4.216 0.436-0.753 0.384-1.365 0.995-1.748 1.748-0.436 0.856-0.436 1.976-0.436 4.216v0.533c0 2.24 0 3.36 0.436 4.216 0.383 0.753 0.995 1.365 1.748 1.748 0.856 0.436 1.976 0.436 4.216 0.436z"></path>
</symbol>
<symbol id="icon-btn-burger" viewBox="0 0 32 32">
<path stroke-linejoin="round" stroke-linecap="round" stroke-miterlimit="4" stroke-width="2.2857" d="M22.667 13.333h-18.667"></path>
<path stroke-linejoin="round" stroke-linecap="round" stroke-miterlimit="4" stroke-width="2.2857" d="M28 8h-24"></path>
<path stroke-linejoin="round" stroke-linecap="round" stroke-miterlimit="4" stroke-width="2.2857" d="M28 18.667h-24"></path>
<path stroke-linejoin="round" stroke-linecap="round" stroke-miterlimit="4" stroke-width="2.2857" d="M22.667 24h-18.667"></path>
</symbol>
<symbol id="icon-corner-down" viewBox="0 0 32 32">
<path d="M7.744 12h16.513l-7.423 8.391c-0.221 0.25-0.521 0.39-0.834 0.39s-0.613-0.14-0.834-0.39l-7.423-8.391z"></path>
</symbol>
<symbol id="icon-delete-basket" viewBox="0 0 32 32">
<path  d="M32 16c0 8.837-7.163 16-16 16s-16-7.163-16-16c0-8.837 7.163-16 16-16s16 7.163 16 16z"></path>
<path  stroke-linejoin="round" stroke-linecap="round" stroke-miterlimit="4" stroke-width="1.6842" d="M13.684 9.053h4.632M9.053 11.368h13.895M21.404 11.368l-0.541 8.12c-0.081 1.218-0.122 1.827-0.385 2.289-0.232 0.407-0.581 0.733-1.002 0.938-0.478 0.232-1.089 0.232-2.31 0.232h-2.33c-1.221 0-1.832 0-2.31-0.232-0.421-0.204-0.771-0.531-1.002-0.938-0.263-0.462-0.304-1.071-0.385-2.289l-0.541-8.12M14.456 14.842v3.86M17.544 14.842v3.86"></path>
</symbol>
<symbol id="icon-logo" viewBox="0 0 32 32">
<path  d="M0 0l16.343 16.171 15.657 15.829v-32h-32z"></path>
<path  d="M4.457 4.229l11.943 11.829 11.257 11.486h-23.2v-23.314z"></path>
<path  d="M27.733 27.618l-11.943-11.829-11.257-11.486h23.2v23.314z"></path>
<path  d="M9.257 9.029l13.6 13.6h-13.6v-13.6z"></path>
<path  d="M9.257 9.029l13.6 13.6v-13.6h-13.6z"></path>
</symbol>
<symbol id="icon-mail" viewBox="0 0 32 32">
<path stroke-linejoin="round" stroke-linecap="round" stroke-miterlimit="4" stroke-width="2.2857" d="M28.666 24l-8.857-8M12.19 16l-8.857 8M2.667 9.333l10.887 7.621c0.882 0.617 1.322 0.926 1.802 1.045 0.423 0.106 0.866 0.106 1.29 0 0.479-0.12 0.92-0.428 1.802-1.045l10.887-7.621M9.067 26.667h13.867c2.24 0 3.36 0 4.216-0.436 0.753-0.384 1.365-0.995 1.748-1.748 0.436-0.856 0.436-1.976 0.436-4.216v-8.533c0-2.24 0-3.36-0.436-4.216-0.383-0.753-0.995-1.365-1.748-1.748-0.856-0.436-1.976-0.436-4.216-0.436h-13.867c-2.24 0-3.36 0-4.216 0.436-0.753 0.383-1.365 0.995-1.748 1.748-0.436 0.856-0.436 1.976-0.436 4.216v8.533c0 2.24 0 3.36 0.436 4.216 0.384 0.753 0.995 1.365 1.748 1.748 0.856 0.436 1.976 0.436 4.216 0.436z"></path>
</symbol>
<symbol id="icon-plug-book" viewBox="0 0 32 32">
<path  d="M31.229 8.466c-0.684-0.358-1.396-0.656-2.138-0.91v17.947c-1.658-0.612-3.36-0.925-5.091-0.925-2.764 0-5.498 0.806-8 2.357v-18.051c-2.356-1.387-5.076-2.208-8-2.208-2.604 0-5.062 0.656-7.229 1.79-0.48 0.239-0.771 0.761-0.771 1.313v18.021c0 0.865 0.684 1.477 1.455 1.477 0.233 0 0.465-0.060 0.698-0.179 1.76-0.94 3.738-1.537 5.847-1.537 3.011 0 5.789 1.223 8 2.984 2.211-1.76 4.989-2.984 8-2.984 2.109 0 4.087 0.597 5.847 1.552 0.233 0.119 0.465 0.179 0.698 0.179 0.756 0 1.455-0.612 1.455-1.477v-18.036c0-0.552-0.291-1.074-0.771-1.313zM13.091 25.503c-1.658-0.612-3.36-0.925-5.091-0.925s-3.433 0.313-5.091 0.925v-14.784c1.615-0.701 3.316-1.059 5.091-1.059 1.745 0 3.476 0.373 5.091 1.074v14.769zM26.182 1.455l-7.273 7.459v14.173l7.273-6.713v-14.918z"></path>
</symbol>
<symbol id="icon-scroll-up" viewBox="0 0 32 32">
<path d="M16 0c8.837 0 16 7.163 16 16s-7.163 16-16 16c-8.837 0-16-7.163-16-16s7.163-16 16-16z"></path>
<path d="M16 2.5c7.456 0 13.5 6.044 13.5 13.5s-6.044 13.5-13.5 13.5c-7.456 0-13.5-6.044-13.5-13.5s6.044-13.5 13.5-13.5z"></path>
<path d="M17.35 20.313l-4.213-4.2c-0.050-0.050-0.085-0.104-0.106-0.162s-0.031-0.121-0.031-0.188 0.011-0.129 0.031-0.188c0.021-0.058 0.056-0.113 0.106-0.163l4.213-4.213c0.117-0.117 0.262-0.175 0.438-0.175s0.325 0.063 0.45 0.188c0.125 0.125 0.188 0.271 0.188 0.438s-0.063 0.313-0.188 0.438l-3.675 3.675 3.675 3.675c0.117 0.117 0.175 0.26 0.175 0.431s-0.063 0.319-0.188 0.444-0.271 0.188-0.438 0.188c-0.167 0-0.313-0.063-0.438-0.188z"></path>
</symbol>
<symbol id="icon-user-icon" viewBox="0 0 32 32">
<path d="M5.333 29.333c0-2.829 1.124-5.542 3.124-7.543s4.713-3.124 7.542-3.124c2.829 0 5.542 1.124 7.542 3.124s3.124 4.714 3.124 7.543h-21.333zM16 17.333c-4.42 0-8-3.58-8-8s3.58-8 8-8c4.42 0 8 3.58 8 8s-3.58 8-8 8z"></path>
</symbol>
<symbol id="icon-x-closer" viewBox="0 0 32 32">
<path stroke-linejoin="round" stroke-linecap="round" stroke-miterlimit="4" stroke-width="3.4286" d="M24 8l-16 16M8 8l16 16"></path>
</symbol>
</defs>
</svg>
